<svg xmlns="http://www.w3.org/2000/svg" viewBox="0 0 512 512">
  <defs>
    <linearGradient id="grad1" x1="0%" y1="0%" x2="100%" y2="100%">
      <stop offset="0%" style="stop-color:#6366f1;stop-opacity:1" />
      <stop offset="100%" style="stop-color:#a855f7;stop-opacity:1" />
    </linearGradient>
  </defs>
  <circle cx="256" cy="256" r="240" fill="#0f172a" stroke="url(#grad1)" stroke-width="20"/>
  <path d="M256 96C167.6 96 96 167.6 96 256s71.6 160 160 160 160-71.6 160-160S344.4 96 256 96zm0 288c-70.7 0-128-57.3-128-128s57.3-128 128-128 128 57.3 128 128-57.3 128-128 128z" fill="url(#grad1)"/>
  <path d="M256 160c-53 0-96 43-96 96s43 96 96 96 96-43 96-96-43-96-96-96zm0 160c-35.3 0-64-28.7-64-64s28.7-64 64-64 64 28.7 64 64-28.7 64-64 64z" fill="#fff"/>
  <circle cx="256" cy="256" r="32" fill="url(#grad1)"/>
  <path d="M256 64V32M256 480v-32M64 256H32M480 256h-32M120.2 120.2L97.6 97.6M414.4 414.4l-22.6-22.6M120.2 391.8l-22.6 22.6M414.4 97.6l-22.6 22.6" stroke="url(#grad1)" stroke-width="20" stroke-linecap="round"/>
</svg>